<svg version="1.1" viewBox="0.0 0.0 689.0 426.0" fill="none" stroke="none" stroke-linecap="square" stroke-miterlimit="10" width="689" height="426" xmlns:xlink="http://www.w3.org/1999/xlink" xmlns="http://www.w3.org/2000/svg"><path fill="#303236" d="M0 0L689.0 0L689.0 426.0L0 426.0L0 0Z" fill-rule="nonzero"/><clipPath id="id_0"><path d="M158.58 54.5L667.7 54.5L667.7 380.7L158.58 380.7L158.58 54.5Z" clip-rule="nonzero"/></clipPath><path stroke="#000000" stroke-width="2.0" stroke-linecap="butt" stroke-opacity="0.0" clip-path="url(#id_0)" d="M159.0 104.0L159.0 82.0L360.0 82.0C361.10458 82.0 362.0 82.89543 362.0 84.0L362.0 102.0C362.0 103.10457 361.10458 104.0 360.0 104.0Z" fill-rule="nonzero"/><path fill="#2bf7b2" clip-path="url(#id_0)" d="M159.0 104.0L159.0 82.0L360.0 82.0C361.10458 82.0 362.0 82.89543 362.0 84.0L362.0 102.0C362.0 103.10457 361.10458 104.0 360.0 104.0Z" fill-rule="nonzero"/><path stroke="#000000" stroke-width="2.0" stroke-linecap="butt" stroke-opacity="0.0" clip-path="url(#id_0)" d="M159.0 179.0L159.0 157.0L258.0 157.0C259.10458 157.0 260.0 157.89543 260.0 159.0L260.0 177.0C260.0 178.10457 259.10458 179.0 258.0 179.0Z" fill-rule="nonzero"/><path fill="#2bf7b2" clip-path="url(#id_0)" d="M159.0 179.0L159.0 157.0L258.0 157.0C259.10458 157.0 260.0 157.89543 260.0 159.0L260.0 177.0C260.0 178.10457 259.10458 179.0 258.0 179.0Z" fill-rule="nonzero"/><path stroke="#000000" stroke-width="2.0" stroke-linecap="butt" stroke-opacity="0.0" clip-path="url(#id_0)" d="M159.0 254.0L159.0 232.0L666.0 232.0C667.10455 232.0 668.0 232.89543 668.0 234.0L668.0 252.0C668.0 253.10457 667.10455 254.0 666.0 254.0Z" fill-rule="nonzero"/><path fill="#2bf7b2" clip-path="url(#id_0)" d="M159.0 254.0L159.0 232.0L666.0 232.0C667.10455 232.0 668.0 232.89543 668.0 234.0L668.0 252.0C668.0 253.10457 667.10455 254.0 666.0 254.0Z" fill-rule="nonzero"/><path stroke="#000000" stroke-width="2.0" stroke-linecap="butt" stroke-opacity="0.0" clip-path="url(#id_0)" d="M159.0 329.0L159.0 307.0L462.0 307.0C463.10458 307.0 464.0 307.89542 464.0 309.0L464.0 327.0C464.0 328.10458 463.10458 329.0 462.0 329.0Z" fill-rule="nonzero"/><path fill="#2bf7b2" clip-path="url(#id_0)" d="M159.0 329.0L159.0 307.0L462.0 307.0C463.10458 307.0 464.0 307.89542 464.0 309.0L464.0 327.0C464.0 328.10458 463.10458 329.0 462.0 329.0Z" fill-rule="nonzero"/><path stroke="#000000" stroke-width="2.0" stroke-linecap="butt" stroke-opacity="0.0" clip-path="url(#id_0)" d="M159.0 128.0L159.0 106.0L159.0 106.0L159.0 128.0Z" fill-rule="nonzero"/><path fill="#004a9f" clip-path="url(#id_0)" d="M159.0 128.0L159.0 106.0L159.0 106.0L159.0 128.0Z" fill-rule="nonzero"/><path stroke="#000000" stroke-width="2.0" stroke-linecap="butt" stroke-opacity="0.0" clip-path="url(#id_0)" d="M159.0 203.0L159.0 181.0L258.0 181.0C259.10458 181.0 260.0 181.89543 260.0 183.0L260.0 201.0C260.0 202.10457 259.10458 203.0 258.0 203.0Z" fill-rule="nonzero"/><path fill="#004a9f" clip-path="url(#id_0)" d="M159.0 203.0L159.0 181.0L258.0 181.0C259.10458 181.0 260.0 181.89543 260.0 183.0L260.0 201.0C260.0 202.10457 259.10458 203.0 258.0 203.0Z" fill-rule="nonzero"/><path fill="#ffffff" d="M38.064377 109.58599Q38.845627 109.58599 39.42375 109.11724Q40.001877 108.64849 40.064377 107.945366L41.42375 107.945366Q41.3925 108.67974 40.92375 109.33599Q40.470627 109.99224 39.689377 110.382866Q38.92375 110.77349 38.064377 110.77349Q36.345627 110.77349 35.314377 109.61724Q34.29875 108.46099 34.29875 106.46099L34.29875 106.226616Q34.29875 104.99224 34.751877 104.039116Q35.205 103.070366 36.04875 102.539116Q36.908127 102.007866 38.064377 102.007866Q39.48625 102.007866 40.42375 102.86724Q41.36125 103.71099 41.42375 105.070366L40.064377 105.070366Q40.001877 104.24224 39.439377 103.726616Q38.876877 103.195366 38.064377 103.195366Q36.955 103.195366 36.345627 103.99224Q35.751877 104.77349 35.751877 106.27349L35.751877 106.55474Q35.751877 108.007866 36.345627 108.80474Q36.955 109.58599 38.064377 109.58599ZM50.064377 109.58599Q50.845627 109.58599 51.42375 109.11724Q52.001877 108.64849 52.064377 107.945366L53.42375 107.945366Q53.3925 108.67974 52.92375 109.33599Q52.470627 109.99224 51.689377 110.382866Q50.92375 110.77349 50.064377 110.77349Q48.345627 110.77349 47.314377 109.61724Q46.29875 108.46099 46.29875 106.46099L46.29875 106.226616Q46.29875 104.99224 46.751877 104.039116Q47.205 103.070366 48.04875 102.539116Q48.908127 102.007866 50.064377 102.007866Q51.48625 102.007866 52.42375 102.86724Q53.36125 103.71099 53.42375 105.070366L52.064377 105.070366Q52.001877 104.24224 51.439377 103.726616Q50.876877 103.195366 50.064377 103.195366Q48.955 103.195366 48.345627 103.99224Q47.751877 104.77349 47.751877 106.27349L47.751877 106.55474Q47.751877 108.007866 48.345627 108.80474Q48.955 109.58599 50.064377 109.58599ZM54.29875 106.30474Q54.29875 105.070366 54.783127 104.08599Q55.2675 103.08599 56.1425 102.55474Q57.0175 102.007866 58.126877 102.007866Q59.86125 102.007866 60.92375 103.21099Q61.98625 104.39849 61.98625 106.382866L61.98625 106.476616Q61.98625 107.71099 61.5175 108.695366Q61.04875 109.67974 60.158127 110.226616Q59.283127 110.77349 58.1425 110.77349Q56.42375 110.77349 55.36125 109.58599Q54.29875 108.382866 54.29875 106.414116L54.29875 106.30474ZM55.751877 106.476616Q55.751877 107.882866 56.3925 108.74224Q57.04875 109.58599 58.1425 109.58599Q59.251877 109.58599 59.8925 108.726616Q60.54875 107.86724 60.54875 106.30474Q60.54875 104.914116 59.876877 104.05474Q59.220627 103.195366 58.126877 103.195366Q57.064377 103.195366 56.408127 104.05474Q55.751877 104.89849 55.751877 106.476616ZM67.7675 103.46099Q67.43938 103.39849 67.04875 103.39849Q65.62688 103.39849 65.12688 104.61724L65.12688 110.61724L63.67375 110.61724L63.67375 102.164116L65.08 102.164116L65.11125 103.132866Q65.81438 102.007866 67.12688 102.007866Q67.54875 102.007866 67.7675 102.11724L67.7675 103.46099ZM75.81438 106.476616Q75.81438 108.414116 74.92375 109.601616Q74.04875 110.77349 72.54875 110.77349Q71.00188 110.77349 70.12688 109.789116L70.12688 113.86724L68.67375 113.86724L68.67375 102.164116L70.00188 102.164116L70.06438 103.101616Q70.955 102.007866 72.5175 102.007866Q74.04875 102.007866 74.92375 103.164116Q75.81438 104.30474 75.81438 106.351616L75.81438 106.476616ZM74.37688 106.320366Q74.37688 104.882866 73.7675 104.05474Q73.15813 103.226616 72.09563 103.226616Q70.78313 103.226616 70.12688 104.39849L70.12688 108.42974Q70.7675 109.58599 72.11125 109.58599Q73.1425 109.58599 73.75188 108.77349Q74.37688 107.945366 74.37688 106.320366ZM86.8925 110.61724Q86.7675 110.36724 86.68938 109.726616Q85.68938 110.77349 84.28313 110.77349Q83.03313 110.77349 82.23625 110.070366Q81.43938 109.351616 81.43938 108.27349Q81.43938 106.945366 82.43938 106.226616Q83.43938 105.49224 85.2675 105.49224L86.67375 105.49224L86.67375 104.820366Q86.67375 104.070366 86.22063 103.61724Q85.7675 103.164116 84.87688 103.164116Q84.11125 103.164116 83.58 103.55474Q83.06438 103.945366 83.06438 104.507866L81.61125 104.507866Q81.61125 103.86724 82.04875 103.289116Q82.50188 102.695366 83.2675 102.351616Q84.04875 102.007866 84.97063 102.007866Q86.42375 102.007866 87.25188 102.74224Q88.08 103.46099 88.11125 104.74224L88.11125 108.632866Q88.11125 109.80474 88.40813 110.49224L88.40813 110.61724L86.8925 110.61724ZM84.50188 109.507866Q85.17375 109.507866 85.78313 109.164116Q86.3925 108.80474 86.67375 108.24224L86.67375 106.507866L85.53313 106.507866Q82.87688 106.507866 82.87688 108.070366Q82.87688 108.74224 83.33 109.132866Q83.78313 109.507866 84.50188 109.507866ZM92.25188 110.61724L90.79875 110.61724L90.79875 98.61724L92.25188 98.61724L92.25188 110.61724ZM96.25188 110.61724L94.79875 110.61724L94.79875 98.61724L96.25188 98.61724L96.25188 110.61724ZM98.29875 106.30474Q98.29875 105.070366 98.78313 104.08599Q99.2675 103.08599 100.1425 102.55474Q101.0175 102.007866 102.12688 102.007866Q103.86125 102.007866 104.92375 103.21099Q105.98625 104.39849 105.98625 106.382866L105.98625 106.476616Q105.98625 107.71099 105.5175 108.695366Q105.04875 109.67974 104.15813 110.226616Q103.28313 110.77349 102.1425 110.77349Q100.42375 110.77349 99.36125 109.58599Q98.29875 108.382866 98.29875 106.414116L98.29875 106.30474ZM99.75188 106.476616Q99.75188 107.882866 100.3925 108.74224Q101.04875 109.58599 102.1425 109.58599Q103.25188 109.58599 103.8925 108.726616Q104.54875 107.86724 104.54875 106.30474Q104.54875 104.914116 103.87688 104.05474Q103.22063 103.195366 102.12688 103.195366Q101.06438 103.195366 100.40813 104.05474Q99.75188 104.89849 99.75188 106.476616ZM111.06438 109.58599Q111.84563 109.58599 112.42375 109.11724Q113.00188 108.64849 113.06438 107.945366L114.42375 107.945366Q114.3925 108.67974 113.92375 109.33599Q113.47063 109.99224 112.68938 110.382866Q111.92375 110.77349 111.06438 110.77349Q109.34563 110.77349 108.31438 109.61724Q107.29875 108.46099 107.29875 106.46099L107.29875 106.226616Q107.29875 104.99224 107.75188 104.039116Q108.205 103.070366 109.04875 102.539116Q109.90813 102.007866 111.06438 102.007866Q112.48625 102.007866 113.42375 102.86724Q114.36125 103.71099 114.42375 105.070366L113.06438 105.070366Q113.00188 104.24224 112.43938 103.726616Q111.87688 103.195366 111.06438 103.195366Q109.955 103.195366 109.34563 103.99224Q108.75188 104.77349 108.75188 106.27349L108.75188 106.55474Q108.75188 108.007866 109.34563 108.80474Q109.955 109.58599 111.06438 109.58599ZM120.8925 110.61724Q120.7675 110.36724 120.68938 109.726616Q119.68938 110.77349 118.28313 110.77349Q117.03313 110.77349 116.23625 110.070366Q115.43938 109.351616 115.43938 108.27349Q115.43938 106.945366 116.43938 106.226616Q117.43938 105.49224 119.2675 105.49224L120.67375 105.49224L120.67375 104.820366Q120.67375 104.070366 120.22063 103.61724Q119.7675 103.164116 118.87688 103.164116Q118.11125 103.164116 117.58 103.55474Q117.06438 103.945366 117.06438 104.507866L115.61125 104.507866Q115.61125 103.86724 116.04875 103.289116Q116.50188 102.695366 117.2675 102.351616Q118.04875 102.007866 118.97063 102.007866Q120.42375 102.007866 121.25188 102.74224Q122.08 103.46099 122.11125 104.74224L122.11125 108.632866Q122.11125 109.80474 122.40813 110.49224L122.40813 110.61724L120.8925 110.61724ZM118.50188 109.507866Q119.17375 109.507866 119.78313 109.164116Q120.3925 108.80474 120.67375 108.24224L120.67375 106.507866L119.53313 106.507866Q116.87688 106.507866 116.87688 108.070366Q116.87688 108.74224 117.33 109.132866Q117.78313 109.507866 118.50188 109.507866ZM126.6425 100.11724L126.6425 102.164116L128.22063 102.164116L128.22063 103.27349L126.6425 103.27349L126.6425 108.52349Q126.6425 109.02349 126.84563 109.289116Q127.06438 109.539116 127.56438 109.539116Q127.81438 109.539116 128.25188 109.445366L128.25188 110.61724Q127.68938 110.77349 127.1425 110.77349Q126.17375 110.77349 125.67375 110.195366Q125.18938 109.601616 125.18938 108.52349L125.18938 103.27349L123.65813 103.27349L123.65813 102.164116L125.18938 102.164116L125.18938 100.11724L126.6425 100.11724ZM131.25188 110.61724L129.79875 110.61724L129.79875 102.164116L131.25188 102.164116L131.25188 110.61724ZM129.68938 99.914116Q129.68938 99.570366 129.8925 99.33599Q130.11125 99.08599 130.53313 99.08599Q130.955 99.08599 131.17375 99.33599Q131.3925 99.570366 131.3925 99.92974Q131.3925 100.27349 131.17375 100.507866Q130.955 100.74224 130.53313 100.74224Q130.11125 100.74224 129.8925 100.507866Q129.68938 100.27349 129.68938 99.914116ZM133.29875 106.30474Q133.29875 105.070366 133.78313 104.08599Q134.2675 103.08599 135.1425 102.55474Q136.0175 102.007866 137.12688 102.007866Q138.86125 102.007866 139.92375 103.21099Q140.98625 104.39849 140.98625 106.382866L140.98625 106.476616Q140.98625 107.71099 140.5175 108.695366Q140.04875 109.67974 139.15813 110.226616Q138.28313 110.77349 137.1425 110.77349Q135.42375 110.77349 134.36125 109.58599Q133.29875 108.382866 133.29875 106.414116L133.29875 106.30474ZM134.75188 106.476616Q134.75188 107.882866 135.3925 108.74224Q136.04875 109.58599 137.1425 109.58599Q138.25188 109.58599 138.8925 108.726616Q139.54875 107.86724 139.54875 106.30474Q139.54875 104.914116 138.87688 104.05474Q138.22063 103.195366 137.12688 103.195366Q136.06438 103.195366 135.40813 104.05474Q134.75188 104.89849 134.75188 106.476616ZM144.04875 102.164116L144.09563 103.226616Q145.06438 102.007866 146.62688 102.007866Q149.29875 102.007866 149.33 105.02349L149.33 110.61724L147.87688 110.61724L147.87688 105.02349Q147.87688 104.101616 147.455 103.664116Q147.04875 103.226616 146.18938 103.226616Q145.48625 103.226616 144.955 103.601616Q144.42375 103.976616 144.12688 104.58599L144.12688 110.61724L142.67375 110.61724L142.67375 102.164116L144.04875 102.164116Z" fill-rule="nonzero"/><path fill="#ffffff" d="M68.03313 167.65262L68.08 168.59012Q69.00188 167.49637 70.58 167.49637Q72.36125 167.49637 73.00188 168.85574Q73.42375 168.24637 74.09563 167.87137Q74.7675 167.49637 75.68938 167.49637Q78.47063 167.49637 78.5175 170.43387L78.5175 176.10574L77.08 176.10574L77.08 170.52762Q77.08 169.62137 76.65813 169.16824Q76.25188 168.71512 75.2675 168.71512Q74.47063 168.71512 73.93938 169.1995Q73.40813 169.68387 73.31438 170.49637L73.31438 176.10574L71.86125 176.10574L71.86125 170.55887Q71.86125 168.71512 70.06438 168.71512Q68.6425 168.71512 68.11125 169.93387L68.11125 176.10574L66.67375 176.10574L66.67375 167.65262L68.03313 167.65262ZM85.8925 176.10574Q85.7675 175.85574 85.68938 175.21512Q84.68938 176.262 83.28313 176.262Q82.03313 176.262 81.23625 175.55887Q80.43938 174.84012 80.43938 173.762Q80.43938 172.43387 81.43938 171.71512Q82.43938 170.98074 84.2675 170.98074L85.67375 170.98074L85.67375 170.30887Q85.67375 169.55887 85.22063 169.10574Q84.7675 168.65262 83.87688 168.65262Q83.11125 168.65262 82.58 169.04324Q82.06438 169.43387 82.06438 169.99637L80.61125 169.99637Q80.61125 169.35574 81.04875 168.77762Q81.50188 168.18387 82.2675 167.84012Q83.04875 167.49637 83.97063 167.49637Q85.42375 167.49637 86.25188 168.23074Q87.08 168.9495 87.11125 170.23074L87.11125 174.12137Q87.11125 175.29324 87.40813 175.98074L87.40813 176.10574L85.8925 176.10574ZM83.50188 174.99637Q84.17375 174.99637 84.78313 174.65262Q85.3925 174.29324 85.67375 173.73074L85.67375 171.99637L84.53313 171.99637Q81.87688 171.99637 81.87688 173.55887Q81.87688 174.23074 82.33 174.62137Q82.78313 174.99637 83.50188 174.99637ZM93.7675 168.9495Q93.43938 168.887 93.04875 168.887Q91.62688 168.887 91.12688 170.10574L91.12688 176.10574L89.67375 176.10574L89.67375 167.65262L91.08 167.65262L91.11125 168.62137Q91.81438 167.49637 93.12688 167.49637Q93.54875 167.49637 93.7675 167.60574L93.7675 168.9495ZM97.03313 172.18387L96.12688 173.137L96.12688 176.10574L94.68938 176.10574L94.68938 164.10574L96.12688 164.10574L96.12688 171.35574L96.90813 170.43387L99.53313 167.65262L101.29875 167.65262L98.00188 171.18387L101.67375 176.10574L99.98625 176.10574L97.03313 172.18387ZM106.18938 176.262Q104.47063 176.262 103.3925 175.137Q102.31438 173.99637 102.31438 172.10574L102.31438 171.84012Q102.31438 170.59012 102.78313 169.60574Q103.2675 168.60574 104.12688 168.05887Q105.00188 167.49637 106.00188 167.49637Q107.65813 167.49637 108.56438 168.59012Q109.48625 169.66824 109.48625 171.68387L109.48625 172.29324L103.75188 172.29324Q103.78313 173.54324 104.48625 174.30887Q105.18938 175.0745 106.2675 175.0745Q107.03313 175.0745 107.56438 174.762Q108.09563 174.4495 108.48625 173.93387L109.37688 174.62137Q108.31438 176.262 106.18938 176.262ZM106.00188 168.68387Q105.12688 168.68387 104.53313 169.3245Q103.93938 169.9495 103.79875 171.10574L108.03313 171.10574L108.03313 170.99637Q107.97063 169.887 107.43938 169.29324Q106.90813 168.68387 106.00188 168.68387ZM112.6425 165.60574L112.6425 167.65262L114.22063 167.65262L114.22063 168.762L112.6425 168.762L112.6425 174.012Q112.6425 174.512 112.84563 174.77762Q113.06438 175.02762 113.56438 175.02762Q113.81438 175.02762 114.25188 174.93387L114.25188 176.10574Q113.68938 176.262 113.1425 176.262Q112.17375 176.262 111.67375 175.68387Q111.18938 175.09012 111.18938 174.012L111.18938 168.762L109.65813 168.762L109.65813 167.65262L111.18938 167.65262L111.18938 165.60574L112.6425 165.60574ZM117.25188 176.10574L115.79875 176.10574L115.79875 167.65262L117.25188 167.65262L117.25188 176.10574ZM115.68938 165.40262Q115.68938 165.05887 115.8925 164.8245Q116.11125 164.5745 116.53313 164.5745Q116.955 164.5745 117.17375 164.8245Q117.3925 165.05887 117.3925 165.41824Q117.3925 165.762 117.17375 165.99637Q116.955 166.23074 116.53313 166.23074Q116.11125 166.23074 115.8925 165.99637Q115.68938 165.762 115.68938 165.40262ZM121.04875 167.65262L121.09563 168.71512Q122.06438 167.49637 123.62688 167.49637Q126.29875 167.49637 126.33 170.512L126.33 176.10574L124.87688 176.10574L124.87688 170.512Q124.87688 169.59012 124.455 169.15262Q124.04875 168.71512 123.18938 168.71512Q122.48625 168.71512 121.955 169.09012Q121.42375 169.46512 121.12688 170.0745L121.12688 176.10574L119.67375 176.10574L119.67375 167.65262L121.04875 167.65262ZM128.33 171.80887Q128.33 169.8245 129.23625 168.66824Q130.15813 167.49637 131.67375 167.49637Q133.22063 167.49637 134.08 168.59012L134.15813 167.65262L135.47063 167.65262L135.47063 175.90262Q135.47063 177.54324 134.50188 178.48074Q133.53313 179.43387 131.8925 179.43387Q130.97063 179.43387 130.09563 179.04324Q129.22063 178.65262 128.7675 177.98074L129.5175 177.10574Q130.43938 178.262 131.78313 178.262Q132.84563 178.262 133.42375 177.66824Q134.0175 177.0745 134.0175 175.98074L134.0175 175.262Q133.15813 176.262 131.65813 176.262Q130.17375 176.262 129.25188 175.0745Q128.33 173.87137 128.33 171.80887ZM129.78313 171.96512Q129.78313 173.40262 130.36125 174.21512Q130.955 175.02762 132.0175 175.02762Q133.37688 175.02762 134.0175 173.79324L134.0175 169.93387Q133.36125 168.71512 132.03313 168.71512Q130.97063 168.71512 130.37688 169.54324Q129.78313 170.35574 129.78313 171.96512ZM141.37688 173.04324Q141.37688 172.23074 141.83 171.54324Q142.28313 170.85574 143.58 169.93387Q142.81438 169.012 142.54875 168.4495Q142.29875 167.887 142.29875 167.34012Q142.29875 166.04324 143.06438 165.30887Q143.83 164.5745 145.1425 164.5745Q146.31438 164.5745 147.08 165.262Q147.84563 165.93387 147.84563 166.98074Q147.84563 167.66824 147.50188 168.24637Q147.15813 168.8245 146.28313 169.46512L145.455 170.09012L147.98625 173.10574Q148.5175 172.09012 148.5175 170.85574L149.81438 170.85574Q149.81438 172.84012 148.86125 174.15262L150.48625 176.10574L148.75188 176.10574L147.98625 175.1995Q147.40813 175.71512 146.62688 175.99637Q145.86125 176.262 145.04875 176.262Q143.3925 176.262 142.37688 175.387Q141.37688 174.49637 141.37688 173.04324ZM145.04875 175.0745Q146.205 175.0745 147.15813 174.1995L144.37688 170.887L144.12688 171.0745Q142.81438 172.02762 142.81438 173.04324Q142.81438 173.96512 143.40813 174.52762Q144.0175 175.0745 145.04875 175.0745ZM143.75188 167.29324Q143.75188 168.04324 144.67375 169.16824L145.59563 168.512Q146.12688 168.137 146.31438 167.80887Q146.5175 167.46512 146.5175 166.98074Q146.5175 166.4495 146.12688 166.10574Q145.73625 165.762 145.1425 165.762Q144.50188 165.762 144.12688 166.1995Q143.75188 166.62137 143.75188 167.29324Z" fill-rule="nonzero"/><path fill="#ffffff" d="M77.81438 190.96512Q77.81438 192.90262 76.92375 194.09012Q76.04875 195.262 74.54875 195.262Q73.00188 195.262 72.12688 194.27762L72.12688 198.35574L70.67375 198.35574L70.67375 186.65262L72.00188 186.65262L72.06438 187.59012Q72.955 186.49637 74.5175 186.49637Q76.04875 186.49637 76.92375 187.65262Q77.81438 188.79324 77.81438 190.84012L77.81438 190.96512ZM76.37688 190.80887Q76.37688 189.37137 75.7675 188.54324Q75.15813 187.71512 74.09563 187.71512Q72.78313 187.71512 72.12688 188.887L72.12688 192.91824Q72.7675 194.0745 74.11125 194.0745Q75.1425 194.0745 75.75188 193.262Q76.37688 192.43387 76.37688 190.80887ZM83.7675 187.9495Q83.43938 187.887 83.04875 187.887Q81.62688 187.887 81.12688 189.10574L81.12688 195.10574L79.67375 195.10574L79.67375 186.65262L81.08 186.65262L81.11125 187.62137Q81.81438 186.49637 83.12688 186.49637Q83.54875 186.49637 83.7675 186.60574L83.7675 187.9495ZM84.29875 190.79324Q84.29875 189.55887 84.78313 188.5745Q85.2675 187.5745 86.1425 187.04324Q87.0175 186.49637 88.12688 186.49637Q89.86125 186.49637 90.92375 187.6995Q91.98625 188.887 91.98625 190.87137L91.98625 190.96512Q91.98625 192.1995 91.5175 193.18387Q91.04875 194.16824 90.15813 194.71512Q89.28313 195.262 88.1425 195.262Q86.42375 195.262 85.36125 194.0745Q84.29875 192.87137 84.29875 190.90262L84.29875 190.79324ZM85.75188 190.96512Q85.75188 192.37137 86.3925 193.23074Q87.04875 194.0745 88.1425 194.0745Q89.25188 194.0745 89.8925 193.21512Q90.54875 192.35574 90.54875 190.79324Q90.54875 189.40262 89.87688 188.54324Q89.22063 187.68387 88.12688 187.68387Q87.06438 187.68387 86.40813 188.54324Q85.75188 189.387 85.75188 190.96512ZM95.03313 186.65262L95.08 187.59012Q96.00188 186.49637 97.58 186.49637Q99.36125 186.49637 100.00188 187.85574Q100.42375 187.24637 101.09563 186.87137Q101.7675 186.49637 102.68938 186.49637Q105.47063 186.49637 105.5175 189.43387L105.5175 195.10574L104.08 195.10574L104.08 189.52762Q104.08 188.62137 103.65813 188.16824Q103.25188 187.71512 102.2675 187.71512Q101.47063 187.71512 100.93938 188.1995Q100.40813 188.68387 100.31438 189.49637L100.31438 195.10574L98.86125 195.10574L98.86125 189.55887Q98.86125 187.71512 97.06438 187.71512Q95.6425 187.71512 95.11125 188.93387L95.11125 195.10574L93.67375 195.10574L93.67375 186.65262L95.03313 186.65262ZM107.29875 190.79324Q107.29875 189.55887 107.78313 188.5745Q108.2675 187.5745 109.1425 187.04324Q110.0175 186.49637 111.12688 186.49637Q112.86125 186.49637 113.92375 187.6995Q114.98625 188.887 114.98625 190.87137L114.98625 190.96512Q114.98625 192.1995 114.5175 193.18387Q114.04875 194.16824 113.15813 194.71512Q112.28313 195.262 111.1425 195.262Q109.42375 195.262 108.36125 194.0745Q107.29875 192.87137 107.29875 190.90262L107.29875 190.79324ZM108.75188 190.96512Q108.75188 192.37137 109.3925 193.23074Q110.04875 194.0745 111.1425 194.0745Q112.25188 194.0745 112.8925 193.21512Q113.54875 192.35574 113.54875 190.79324Q113.54875 189.40262 112.87688 188.54324Q112.22063 187.68387 111.12688 187.68387Q110.06438 187.68387 109.40813 188.54324Q108.75188 189.387 108.75188 190.96512ZM118.6425 184.60574L118.6425 186.65262L120.22063 186.65262L120.22063 187.762L118.6425 187.762L118.6425 193.012Q118.6425 193.512 118.84563 193.77762Q119.06438 194.02762 119.56438 194.02762Q119.81438 194.02762 120.25188 193.93387L120.25188 195.10574Q119.68938 195.262 119.1425 195.262Q118.17375 195.262 117.67375 194.68387Q117.18938 194.09012 117.18938 193.012L117.18938 187.762L115.65813 187.762L115.65813 186.65262L117.18938 186.65262L117.18938 184.60574L118.6425 184.60574ZM123.25188 195.10574L121.79875 195.10574L121.79875 186.65262L123.25188 186.65262L123.25188 195.10574ZM121.68938 184.40262Q121.68938 184.05887 121.8925 183.8245Q122.11125 183.5745 122.53313 183.5745Q122.955 183.5745 123.17375 183.8245Q123.3925 184.05887 123.3925 184.41824Q123.3925 184.762 123.17375 184.99637Q122.955 185.23074 122.53313 185.23074Q122.11125 185.23074 121.8925 184.99637Q121.68938 184.762 121.68938 184.40262ZM125.29875 190.79324Q125.29875 189.55887 125.78313 188.5745Q126.2675 187.5745 127.1425 187.04324Q128.0175 186.49637 129.12688 186.49637Q130.86125 186.49637 131.92375 187.6995Q132.98625 188.887 132.98625 190.87137L132.98625 190.96512Q132.98625 192.1995 132.5175 193.18387Q132.04875 194.16824 131.15813 194.71512Q130.28313 195.262 129.1425 195.262Q127.42375 195.262 126.36125 194.0745Q125.29875 192.87137 125.29875 190.90262L125.29875 190.79324ZM126.75188 190.96512Q126.75188 192.37137 127.3925 193.23074Q128.04875 194.0745 129.1425 194.0745Q130.25188 194.0745 130.8925 193.21512Q131.54875 192.35574 131.54875 190.79324Q131.54875 189.40262 130.87688 188.54324Q130.22063 187.68387 129.12688 187.68387Q128.06438 187.68387 127.40813 188.54324Q126.75188 189.387 126.75188 190.96512ZM136.04875 186.65262L136.09563 187.71512Q137.06438 186.49637 138.62688 186.49637Q141.29875 186.49637 141.33 189.512L141.33 195.10574L139.87688 195.10574L139.87688 189.512Q139.87688 188.59012 139.455 188.15262Q139.04875 187.71512 138.18938 187.71512Q137.48625 187.71512 136.955 188.09012Q136.42375 188.46512 136.12688 189.0745L136.12688 195.10574L134.67375 195.10574L134.67375 186.65262L136.04875 186.65262ZM148.59563 192.85574Q148.59563 192.27762 148.15813 191.9495Q147.72063 191.62137 146.61125 191.387Q145.5175 191.15262 144.87688 190.8245Q144.23625 190.49637 143.92375 190.04324Q143.61125 189.59012 143.61125 188.96512Q143.61125 187.93387 144.48625 187.21512Q145.37688 186.49637 146.73625 186.49637Q148.17375 186.49637 149.06438 187.24637Q149.97063 187.98074 149.97063 189.137L148.5175 189.137Q148.5175 188.54324 148.00188 188.12137Q147.50188 187.68387 146.73625 187.68387Q145.955 187.68387 145.50188 188.02762Q145.06438 188.37137 145.06438 188.91824Q145.06438 189.4495 145.47063 189.71512Q145.8925 189.98074 146.97063 190.23074Q148.04875 190.46512 148.72063 190.80887Q149.3925 191.137 149.72063 191.60574Q150.04875 192.0745 150.04875 192.762Q150.04875 193.887 149.1425 194.5745Q148.23625 195.262 146.78313 195.262Q145.7675 195.262 144.98625 194.90262Q144.205 194.54324 143.7675 193.90262Q143.33 193.24637 143.33 192.49637L144.7675 192.49637Q144.81438 193.23074 145.34563 193.65262Q145.8925 194.0745 146.78313 194.0745Q147.61125 194.0745 148.09563 193.74637Q148.59563 193.41824 148.59563 192.85574Z" fill-rule="nonzero"/><path fill="#ffffff" d="M89.25188 260.59424L87.79875 260.59424L87.79875 252.14111L89.25188 252.14111L89.25188 260.59424ZM87.68938 249.89111Q87.68938 249.54736 87.8925 249.31299Q88.11125 249.06299 88.53313 249.06299Q88.955 249.06299 89.17375 249.31299Q89.3925 249.54736 89.3925 249.90674Q89.3925 250.25049 89.17375 250.48486Q88.955 250.71924 88.53313 250.71924Q88.11125 250.71924 87.8925 250.48486Q87.68938 250.25049 87.68938 249.89111ZM93.04875 252.14111L93.09563 253.20361Q94.06438 251.98486 95.62688 251.98486Q98.29875 251.98486 98.33 255.00049L98.33 260.59424L96.87688 260.59424L96.87688 255.00049Q96.87688 254.07861 96.455 253.64111Q96.04875 253.20361 95.18938 253.20361Q94.48625 253.20361 93.955 253.57861Q93.42375 253.95361 93.12688 254.56299L93.12688 260.59424L91.67375 260.59424L91.67375 252.14111L93.04875 252.14111ZM103.47063 258.6255L105.56438 252.14111L107.03313 252.14111L104.00188 260.59424L102.90813 260.59424L99.84563 252.14111L101.31438 252.14111L103.47063 258.6255ZM112.18938 260.7505Q110.47063 260.7505 109.3925 259.6255Q108.31438 258.48486 108.31438 256.59424L108.31438 256.3286Q108.31438 255.07861 108.78313 254.09424Q109.2675 253.09424 110.12688 252.54736Q111.00188 251.98486 112.00188 251.98486Q113.65813 251.98486 114.56438 253.07861Q115.48625 254.15674 115.48625 256.17236L115.48625 256.78174L109.75188 256.78174Q109.78313 258.03174 110.48625 258.79736Q111.18938 259.563 112.2675 259.563Q113.03313 259.563 113.56438 259.2505Q114.09563 258.938 114.48625 258.42236L115.37688 259.10986Q114.31438 260.7505 112.18938 260.7505ZM112.00188 253.17236Q111.12688 253.17236 110.53313 253.81299Q109.93938 254.43799 109.79875 255.59424L114.03313 255.59424L114.03313 255.48486Q113.97063 254.37549 113.43938 253.78174Q112.90813 253.17236 112.00188 253.17236ZM121.59563 258.34424Q121.59563 257.7661 121.15813 257.438Q120.72063 257.10986 119.61125 256.8755Q118.5175 256.6411 117.87688 256.313Q117.23625 255.98486 116.92375 255.53174Q116.61125 255.07861 116.61125 254.45361Q116.61125 253.42236 117.48625 252.70361Q118.37688 251.98486 119.73625 251.98486Q121.17375 251.98486 122.06438 252.73486Q122.97063 253.46924 122.97063 254.62549L121.5175 254.62549Q121.5175 254.03174 121.00188 253.60986Q120.50188 253.17236 119.73625 253.17236Q118.955 253.17236 118.50188 253.51611Q118.06438 253.85986 118.06438 254.40674Q118.06438 254.93799 118.47063 255.20361Q118.8925 255.46924 119.97063 255.71924Q121.04875 255.95361 121.72063 256.29736Q122.3925 256.6255 122.72063 257.09424Q123.04875 257.563 123.04875 258.2505Q123.04875 259.3755 122.1425 260.063Q121.23625 260.7505 119.78313 260.7505Q118.7675 260.7505 117.98625 260.3911Q117.205 260.03174 116.7675 259.3911Q116.33 258.73486 116.33 257.98486L117.7675 257.98486Q117.81438 258.71924 118.34563 259.1411Q118.8925 259.563 119.78313 259.563Q120.61125 259.563 121.09563 259.23486Q121.59563 258.90674 121.59563 258.34424ZM126.6425 250.09424L126.6425 252.14111L128.22063 252.14111L128.22063 253.25049L126.6425 253.25049L126.6425 258.5005Q126.6425 259.0005 126.84563 259.2661Q127.06438 259.5161 127.56438 259.5161Q127.81438 259.5161 128.25188 259.42236L128.25188 260.59424Q127.68938 260.7505 127.1425 260.7505Q126.17375 260.7505 125.67375 260.17236Q125.18938 259.5786 125.18938 258.5005L125.18938 253.25049L123.65813 253.25049L123.65813 252.14111L125.18938 252.14111L125.18938 250.09424L126.6425 250.09424ZM129.29875 256.28174Q129.29875 255.04736 129.78313 254.06299Q130.2675 253.06299 131.1425 252.53174Q132.0175 251.98486 133.12688 251.98486Q134.86125 251.98486 135.92375 253.18799Q136.98625 254.37549 136.98625 256.35986L136.98625 256.4536Q136.98625 257.688 136.5175 258.67236Q136.04875 259.65674 135.15813 260.2036Q134.28313 260.7505 133.1425 260.7505Q131.42375 260.7505 130.36125 259.563Q129.29875 258.35986 129.29875 256.3911L129.29875 256.28174ZM130.75188 256.4536Q130.75188 257.85986 131.3925 258.71924Q132.04875 259.563 133.1425 259.563Q134.25188 259.563 134.8925 258.7036Q135.54875 257.84424 135.54875 256.28174Q135.54875 254.89111 134.87688 254.03174Q134.22063 253.17236 133.12688 253.17236Q132.06438 253.17236 131.40813 254.03174Q130.75188 254.87549 130.75188 256.4536ZM142.7675 253.43799Q142.43938 253.37549 142.04875 253.37549Q140.62688 253.37549 140.12688 254.59424L140.12688 260.59424L138.67375 260.59424L138.67375 252.14111L140.08 252.14111L140.11125 253.10986Q140.81438 251.98486 142.12688 251.98486Q142.54875 251.98486 142.7675 252.09424L142.7675 253.43799ZM148.59563 258.34424Q148.59563 257.7661 148.15813 257.438Q147.72063 257.10986 146.61125 256.8755Q145.5175 256.6411 144.87688 256.313Q144.23625 255.98486 143.92375 255.53174Q143.61125 255.07861 143.61125 254.45361Q143.61125 253.42236 144.48625 252.70361Q145.37688 251.98486 146.73625 251.98486Q148.17375 251.98486 149.06438 252.73486Q149.97063 253.46924 149.97063 254.62549L148.5175 254.62549Q148.5175 254.03174 148.00188 253.60986Q147.50188 253.17236 146.73625 253.17236Q145.955 253.17236 145.50188 253.51611Q145.06438 253.85986 145.06438 254.40674Q145.06438 254.93799 145.47063 255.20361Q145.8925 255.46924 146.97063 255.71924Q148.04875 255.95361 148.72063 256.29736Q149.3925 256.6255 149.72063 257.09424Q150.04875 257.563 150.04875 258.2505Q150.04875 259.3755 149.1425 260.063Q148.23625 260.7505 146.78313 260.7505Q145.7675 260.7505 144.98625 260.3911Q144.205 260.03174 143.7675 259.3911Q143.33 258.73486 143.33 257.98486L144.7675 257.98486Q144.81438 258.71924 145.34563 259.1411Q145.8925 259.563 146.78313 259.563Q147.61125 259.563 148.09563 259.23486Q148.59563 258.90674 148.59563 258.34424Z" fill-rule="nonzero"/><path fill="#ffffff" d="M103.6425 315.58276L103.6425 317.62964L105.22063 317.62964L105.22063 318.739L103.6425 318.739L103.6425 323.989Q103.6425 324.489 103.84563 324.75464Q104.06438 325.00464 104.56438 325.00464Q104.81438 325.00464 105.25188 324.9109L105.25188 326.08276Q104.68938 326.239 104.1425 326.239Q103.17375 326.239 102.67375 325.6609Q102.18938 325.06714 102.18938 323.989L102.18938 318.739L100.65813 318.739L100.65813 317.62964L102.18938 317.62964L102.18938 315.58276L103.6425 315.58276ZM110.18938 326.239Q108.47063 326.239 107.3925 325.114Q106.31438 323.9734 106.31438 322.08276L106.31438 321.81714Q106.31438 320.56714 106.78313 319.58276Q107.2675 318.58276 108.12688 318.0359Q109.00188 317.4734 110.00188 317.4734Q111.65813 317.4734 112.56438 318.56714Q113.48625 319.64526 113.48625 321.6609L113.48625 322.27026L107.75188 322.27026Q107.78313 323.52026 108.48625 324.2859Q109.18938 325.0515 110.2675 325.0515Q111.03313 325.0515 111.56438 324.739Q112.09563 324.4265 112.48625 323.9109L113.37688 324.5984Q112.31438 326.239 110.18938 326.239ZM110.00188 318.6609Q109.12688 318.6609 108.53313 319.3015Q107.93938 319.9265 107.79875 321.08276L112.03313 321.08276L112.03313 320.9734Q111.97063 319.864 111.43938 319.27026Q110.90813 318.6609 110.00188 318.6609ZM119.8925 326.08276Q119.7675 325.83276 119.68938 325.19214Q118.68938 326.239 117.28313 326.239Q116.03313 326.239 115.23625 325.5359Q114.43938 324.81714 114.43938 323.739Q114.43938 322.4109 115.43938 321.69214Q116.43938 320.95776 118.2675 320.95776L119.67375 320.95776L119.67375 320.2859Q119.67375 319.5359 119.22063 319.08276Q118.7675 318.62964 117.87688 318.62964Q117.11125 318.62964 116.58 319.02026Q116.06438 319.4109 116.06438 319.9734L114.61125 319.9734Q114.61125 319.33276 115.04875 318.75464Q115.50188 318.1609 116.2675 317.81714Q117.04875 317.4734 117.97063 317.4734Q119.42375 317.4734 120.25188 318.20776Q121.08 318.9265 121.11125 320.20776L121.11125 324.0984Q121.11125 325.27026 121.40813 325.95776L121.40813 326.08276L119.8925 326.08276ZM117.50188 324.9734Q118.17375 324.9734 118.78313 324.62964Q119.3925 324.27026 119.67375 323.70776L119.67375 321.9734L118.53313 321.9734Q115.87688 321.9734 115.87688 323.5359Q115.87688 324.20776 116.33 324.5984Q116.78313 324.9734 117.50188 324.9734ZM125.03313 317.62964L125.08 318.56714Q126.00188 317.4734 127.58 317.4734Q129.36125 317.4734 130.00188 318.83276Q130.42375 318.2234 131.09563 317.8484Q131.7675 317.4734 132.68938 317.4734Q135.47063 317.4734 135.5175 320.4109L135.5175 326.08276L134.08 326.08276L134.08 320.50464Q134.08 319.5984 133.65813 319.14526Q133.25188 318.69214 132.2675 318.69214Q131.47063 318.69214 130.93938 319.1765Q130.40813 319.6609 130.31438 320.4734L130.31438 326.08276L128.86125 326.08276L128.86125 320.5359Q128.86125 318.69214 127.06438 318.69214Q125.6425 318.69214 125.11125 319.9109L125.11125 326.08276L123.67375 326.08276L123.67375 317.62964L125.03313 317.62964ZM141.37688 323.02026Q141.37688 322.20776 141.83 321.52026Q142.28313 320.83276 143.58 319.9109Q142.81438 318.989 142.54875 318.4265Q142.29875 317.864 142.29875 317.31714Q142.29875 316.02026 143.06438 315.2859Q143.83 314.5515 145.1425 314.5515Q146.31438 314.5515 147.08 315.239Q147.84563 315.9109 147.84563 316.95776Q147.84563 317.64526 147.50188 318.2234Q147.15813 318.8015 146.28313 319.44214L145.455 320.06714L147.98625 323.08276Q148.5175 322.06714 148.5175 320.83276L149.81438 320.83276Q149.81438 322.81714 148.86125 324.12964L150.48625 326.08276L148.75188 326.08276L147.98625 325.1765Q147.40813 325.69214 146.62688 325.9734Q145.86125 326.239 145.04875 326.239Q143.3925 326.239 142.37688 325.364Q141.37688 324.4734 141.37688 323.02026ZM145.04875 325.0515Q146.205 325.0515 147.15813 324.1765L144.37688 320.864L144.12688 321.0515Q142.81438 322.00464 142.81438 323.02026Q142.81438 323.94214 143.40813 324.50464Q144.0175 325.0515 145.04875 325.0515ZM143.75188 317.27026Q143.75188 318.02026 144.67375 319.14526L145.59563 318.489Q146.12688 318.114 146.31438 317.7859Q146.5175 317.44214 146.5175 316.95776Q146.5175 316.4265 146.12688 316.08276Q145.73625 315.739 145.1425 315.739Q144.50188 315.739 144.12688 316.1765Q143.75188 316.5984 143.75188 317.27026Z" fill-rule="nonzero"/><path fill="#ffffff" d="M60.33 340.7859Q60.33 338.83276 61.251877 337.6609Q62.17375 336.4734 63.658127 336.4734Q65.1425 336.4734 66.0175 337.489L66.0175 333.08276L67.455 333.08276L67.455 345.08276L66.12688 345.08276L66.06438 344.1765Q65.18938 345.239 63.6425 345.239Q62.17375 345.239 61.251877 344.0359Q60.33 342.83276 60.33 340.89526L60.33 340.7859ZM61.7675 340.94214Q61.7675 342.37964 62.36125 343.19214Q62.955 344.00464 64.00188 344.00464Q65.37688 344.00464 66.0175 342.77026L66.0175 338.89526Q65.36125 337.69214 64.0175 337.69214Q62.955 337.69214 62.36125 338.52026Q61.7675 339.33276 61.7675 340.94214ZM73.18938 345.239Q71.47063 345.239 70.3925 344.114Q69.31438 342.9734 69.31438 341.08276L69.31438 340.81714Q69.31438 339.56714 69.78313 338.58276Q70.2675 337.58276 71.12688 337.0359Q72.00188 336.4734 73.00188 336.4734Q74.65813 336.4734 75.56438 337.56714Q76.48625 338.64526 76.48625 340.6609L76.48625 341.27026L70.75188 341.27026Q70.78313 342.52026 71.48625 343.2859Q72.18938 344.0515 73.2675 344.0515Q74.03313 344.0515 74.56438 343.739Q75.09563 343.4265 75.48625 342.9109L76.37688 343.5984Q75.31438 345.239 73.18938 345.239ZM73.00188 337.6609Q72.12688 337.6609 71.53313 338.3015Q70.93938 338.9265 70.79875 340.08276L75.03313 340.08276L75.03313 339.9734Q74.97063 338.864 74.43938 338.27026Q73.90813 337.6609 73.00188 337.6609ZM80.47063 343.114L82.56438 336.62964L84.03313 336.62964L81.00188 345.08276L79.90813 345.08276L76.84563 336.62964L78.31438 336.62964L80.47063 343.114ZM89.18938 345.239Q87.47063 345.239 86.3925 344.114Q85.31438 342.9734 85.31438 341.08276L85.31438 340.81714Q85.31438 339.56714 85.78313 338.58276Q86.2675 337.58276 87.12688 337.0359Q88.00188 336.4734 89.00188 336.4734Q90.65813 336.4734 91.56438 337.56714Q92.48625 338.64526 92.48625 340.6609L92.48625 341.27026L86.75188 341.27026Q86.78313 342.52026 87.48625 343.2859Q88.18938 344.0515 89.2675 344.0515Q90.03313 344.0515 90.56438 343.739Q91.09563 343.4265 91.48625 342.9109L92.37688 343.5984Q91.31438 345.239 89.18938 345.239ZM89.00188 337.6609Q88.12688 337.6609 87.53313 338.3015Q86.93938 338.9265 86.79875 340.08276L91.03313 340.08276L91.03313 339.9734Q90.97063 338.864 90.43938 338.27026Q89.90813 337.6609 89.00188 337.6609ZM95.25188 345.08276L93.79875 345.08276L93.79875 333.08276L95.25188 333.08276L95.25188 345.08276ZM97.29875 340.77026Q97.29875 339.5359 97.78313 338.5515Q98.2675 337.5515 99.1425 337.02026Q100.0175 336.4734 101.12688 336.4734Q102.86125 336.4734 103.92375 337.6765Q104.98625 338.864 104.98625 340.8484L104.98625 340.94214Q104.98625 342.1765 104.5175 343.1609Q104.04875 344.14526 103.15813 344.69214Q102.28313 345.239 101.1425 345.239Q99.42375 345.239 98.36125 344.0515Q97.29875 342.8484 97.29875 340.87964L97.29875 340.77026ZM98.75188 340.94214Q98.75188 342.3484 99.3925 343.20776Q100.04875 344.0515 101.1425 344.0515Q102.25188 344.0515 102.8925 343.19214Q103.54875 342.33276 103.54875 340.77026Q103.54875 339.37964 102.87688 338.52026Q102.22063 337.6609 101.12688 337.6609Q100.06438 337.6609 99.40813 338.52026Q98.75188 339.364 98.75188 340.94214ZM113.81438 340.94214Q113.81438 342.87964 112.92375 344.06714Q112.04875 345.239 110.54875 345.239Q109.00188 345.239 108.12688 344.25464L108.12688 348.33276L106.67375 348.33276L106.67375 336.62964L108.00188 336.62964L108.06438 337.56714Q108.955 336.4734 110.5175 336.4734Q112.04875 336.4734 112.92375 337.62964Q113.81438 338.77026 113.81438 340.81714L113.81438 340.94214ZM112.37688 340.7859Q112.37688 339.3484 111.7675 338.52026Q111.15813 337.69214 110.09563 337.69214Q108.78313 337.69214 108.12688 338.864L108.12688 342.89526Q108.7675 344.0515 110.11125 344.0515Q111.1425 344.0515 111.75188 343.239Q112.37688 342.4109 112.37688 340.7859ZM117.03313 336.62964L117.08 337.56714Q118.00188 336.4734 119.58 336.4734Q121.36125 336.4734 122.00188 337.83276Q122.42375 337.2234 123.09563 336.8484Q123.7675 336.4734 124.68938 336.4734Q127.47063 336.4734 127.5175 339.4109L127.5175 345.08276L126.08 345.08276L126.08 339.50464Q126.08 338.5984 125.65813 338.14526Q125.25188 337.69214 124.2675 337.69214Q123.47063 337.69214 122.93938 338.1765Q122.40813 338.6609 122.31438 339.4734L122.31438 345.08276L120.86125 345.08276L120.86125 339.5359Q120.86125 337.69214 119.06438 337.69214Q117.6425 337.69214 117.11125 338.9109L117.11125 345.08276L115.67375 345.08276L115.67375 336.62964L117.03313 336.62964ZM133.18938 345.239Q131.47063 345.239 130.3925 344.114Q129.31438 342.9734 129.31438 341.08276L129.31438 340.81714Q129.31438 339.56714 129.78313 338.58276Q130.2675 337.58276 131.12688 337.0359Q132.00188 336.4734 133.00188 336.4734Q134.65813 336.4734 135.56438 337.56714Q136.48625 338.64526 136.48625 340.6609L136.48625 341.27026L130.75188 341.27026Q130.78313 342.52026 131.48625 343.2859Q132.18938 344.0515 133.2675 344.0515Q134.03313 344.0515 134.56438 343.739Q135.09563 343.4265 135.48625 342.9109L136.37688 343.5984Q135.31438 345.239 133.18938 345.239ZM133.00188 337.6609Q132.12688 337.6609 131.53313 338.3015Q130.93938 338.9265 130.79875 340.08276L135.03313 340.08276L135.03313 339.9734Q134.97063 338.864 134.43938 338.27026Q133.90813 337.6609 133.00188 337.6609ZM139.04875 336.62964L139.09563 337.69214Q140.06438 336.4734 141.62688 336.4734Q144.29875 336.4734 144.33 339.489L144.33 345.08276L142.87688 345.08276L142.87688 339.489Q142.87688 338.56714 142.455 338.12964Q142.04875 337.69214 141.18938 337.69214Q140.48625 337.69214 139.955 338.06714Q139.42375 338.44214 139.12688 339.0515L139.12688 345.08276L137.67375 345.08276L137.67375 336.62964L139.04875 336.62964ZM148.6425 334.58276L148.6425 336.62964L150.22063 336.62964L150.22063 337.739L148.6425 337.739L148.6425 342.989Q148.6425 343.489 148.84563 343.75464Q149.06438 344.00464 149.56438 344.00464Q149.81438 344.00464 150.25188 343.9109L150.25188 345.08276Q149.68938 345.239 149.1425 345.239Q148.17375 345.239 147.67375 344.6609Q147.18938 344.06714 147.18938 342.989L147.18938 337.739L145.65813 337.739L145.65813 336.62964L147.18938 336.62964L147.18938 334.58276L148.6425 334.58276Z" fill-rule="nonzero"/><path fill="#ffffff" d="M161.6425 396.45Q161.6425 398.66876 160.87688 399.7625Q160.12688 400.84064 158.5175 400.84064Q156.92375 400.84064 156.15813 399.79376Q155.3925 398.73126 155.36125 396.6219L155.36125 394.9344Q155.36125 392.7469 156.11125 391.6844Q156.87688 390.60626 158.50188 390.60626Q160.11125 390.60626 160.86125 391.6375Q161.62688 392.66876 161.6425 394.8094L161.6425 396.45ZM160.37688 394.73126Q160.37688 393.1219 159.92375 392.3875Q159.48625 391.65314 158.50188 391.65314Q157.53313 391.65314 157.08 392.3875Q156.6425 393.10626 156.62688 394.6219L156.62688 396.65314Q156.62688 398.2625 157.09563 399.04376Q157.56438 399.8094 158.5175 399.8094Q159.455 399.8094 159.90813 399.09064Q160.36125 398.35626 160.37688 396.79376L160.37688 394.73126Z" fill-rule="nonzero"/><path fill="#ffffff" d="M230.81026 395.71564L231.32588 390.7469L236.41963 390.7469L236.41963 391.91876L232.38838 391.91876L232.0915 394.6219Q232.82588 394.2 233.74776 394.2Q235.10713 394.2 235.904 395.10626Q236.7165 395.9969 236.7165 397.52814Q236.7165 399.0594 235.87276 399.95Q235.04463 400.84064 233.56026 400.84064Q232.24776 400.84064 231.404 400.10626Q230.57588 399.3719 230.45088 398.075L231.654 398.075Q231.76338 398.9344 232.24776 399.3719Q232.74776 399.8094 233.56026 399.8094Q234.43526 399.8094 234.93526 399.21564Q235.45088 398.60626 235.45088 397.54376Q235.45088 396.54376 234.904 395.95Q234.35713 395.34064 233.45088 395.34064Q232.63838 395.34064 232.154 395.7L231.82588 395.96564L230.81026 395.71564ZM238.32588 402.6844L237.60713 402.1844Q238.24776 401.29376 238.279 400.34064L238.279 399.2L239.51338 399.2L239.51338 400.2Q239.51338 400.8875 239.16963 401.575Q238.82588 402.2625 238.32588 402.6844ZM247.4665 396.45Q247.4665 398.66876 246.70088 399.7625Q245.95088 400.84064 244.3415 400.84064Q242.74776 400.84064 241.98213 399.79376Q241.2165 398.73126 241.18526 396.6219L241.18526 394.9344Q241.18526 392.7469 241.93526 391.6844Q242.70088 390.60626 244.32588 390.60626Q245.93526 390.60626 246.68526 391.6375Q247.45088 392.66876 247.4665 394.8094L247.4665 396.45ZM246.20088 394.73126Q246.20088 393.1219 245.74776 392.3875Q245.31026 391.65314 244.32588 391.65314Q243.35713 391.65314 242.904 392.3875Q242.4665 393.10626 242.45088 394.6219L242.45088 396.65314Q242.45088 398.2625 242.91963 399.04376Q243.38838 399.8094 244.3415 399.8094Q245.279 399.8094 245.73213 399.09064Q246.18526 398.35626 246.20088 396.79376L246.20088 394.73126ZM255.4665 396.45Q255.4665 398.66876 254.70088 399.7625Q253.95088 400.84064 252.3415 400.84064Q250.74776 400.84064 249.98213 399.79376Q249.2165 398.73126 249.18526 396.6219L249.18526 394.9344Q249.18526 392.7469 249.93526 391.6844Q250.70088 390.60626 252.32588 390.60626Q253.93526 390.60626 254.68526 391.6375Q255.45088 392.66876 255.4665 394.8094L255.4665 396.45ZM254.20088 394.73126Q254.20088 393.1219 253.74776 392.3875Q253.31026 391.65314 252.32588 391.65314Q251.35713 391.65314 250.904 392.3875Q250.4665 393.10626 250.45088 394.6219L250.45088 396.65314Q250.45088 398.2625 250.91963 399.04376Q251.38838 399.8094 252.3415 399.8094Q253.279 399.8094 253.73213 399.09064Q254.18526 398.35626 254.20088 396.79376L254.20088 394.73126ZM263.4665 396.45Q263.4665 398.66876 262.70087 399.7625Q261.95087 400.84064 260.3415 400.84064Q258.74774 400.84064 257.98212 399.79376Q257.2165 398.73126 257.18524 396.6219L257.18524 394.9344Q257.18524 392.7469 257.93524 391.6844Q258.70087 390.60626 260.32587 390.60626Q261.93524 390.60626 262.68524 391.6375Q263.45087 392.66876 263.4665 394.8094L263.4665 396.45ZM262.20087 394.73126Q262.20087 393.1219 261.74774 392.3875Q261.31024 391.65314 260.32587 391.65314Q259.35712 391.65314 258.904 392.3875Q258.4665 393.10626 258.45087 394.6219L258.45087 396.65314Q258.45087 398.2625 258.91962 399.04376Q259.38837 399.8094 260.3415 399.8094Q261.279 399.8094 261.73212 399.09064Q262.18524 398.35626 262.20087 396.79376L262.20087 394.73126ZM265.32587 402.6844L264.60712 402.1844Q265.24774 401.29376 265.279 400.34064L265.279 399.2L266.51337 399.2L266.51337 400.2Q266.51337 400.8875 266.16962 401.575Q265.82587 402.2625 265.32587 402.6844ZM274.4665 396.45Q274.4665 398.66876 273.70087 399.7625Q272.95087 400.84064 271.3415 400.84064Q269.74774 400.84064 268.98212 399.79376Q268.2165 398.73126 268.18524 396.6219L268.18524 394.9344Q268.18524 392.7469 268.93524 391.6844Q269.70087 390.60626 271.32587 390.60626Q272.93524 390.60626 273.68524 391.6375Q274.45087 392.66876 274.4665 394.8094L274.4665 396.45ZM273.20087 394.73126Q273.20087 393.1219 272.74774 392.3875Q272.31024 391.65314 271.32587 391.65314Q270.35712 391.65314 269.904 392.3875Q269.4665 393.10626 269.45087 394.6219L269.45087 396.65314Q269.45087 398.2625 269.91962 399.04376Q270.38837 399.8094 271.3415 399.8094Q272.279 399.8094 272.73212 399.09064Q273.18524 398.35626 273.20087 396.79376L273.20087 394.73126ZM282.4665 396.45Q282.4665 398.66876 281.70087 399.7625Q280.95087 400.84064 279.3415 400.84064Q277.74774 400.84064 276.98212 399.79376Q276.2165 398.73126 276.18524 396.6219L276.18524 394.9344Q276.18524 392.7469 276.93524 391.6844Q277.70087 390.60626 279.32587 390.60626Q280.93524 390.60626 281.68524 391.6375Q282.45087 392.66876 282.4665 394.8094L282.4665 396.45ZM281.20087 394.73126Q281.20087 393.1219 280.74774 392.3875Q280.31024 391.65314 279.32587 391.65314Q278.35712 391.65314 277.904 392.3875Q277.4665 393.10626 277.45087 394.6219L277.45087 396.65314Q277.45087 398.2625 277.91962 399.04376Q278.38837 399.8094 279.3415 399.8094Q280.279 399.8094 280.73212 399.09064Q281.18524 398.35626 281.20087 396.79376L281.20087 394.73126ZM290.4665 396.45Q290.4665 398.66876 289.70087 399.7625Q288.95087 400.84064 287.3415 400.84064Q285.74774 400.84064 284.98212 399.79376Q284.2165 398.73126 284.18524 396.6219L284.18524 394.9344Q284.18524 392.7469 284.93524 391.6844Q285.70087 390.60626 287.32587 390.60626Q288.93524 390.60626 289.68524 391.6375Q290.45087 392.66876 290.4665 394.8094L290.4665 396.45ZM289.20087 394.73126Q289.20087 393.1219 288.74774 392.3875Q288.31024 391.65314 287.32587 391.65314Q286.35712 391.65314 285.904 392.3875Q285.4665 393.10626 285.45087 394.6219L285.45087 396.65314Q285.45087 398.2625 285.91962 399.04376Q286.38837 399.8094 287.3415 399.8094Q288.279 399.8094 288.73212 399.09064Q289.18524 398.35626 289.20087 396.79376L289.20087 394.73126Z" fill-rule="nonzero"/><path fill="#ffffff" d="M332.21237 400.7L330.94675 400.7L330.94675 392.27814L328.38425 393.2L328.38425 392.0594L332.00925 390.7L332.21237 390.7L332.21237 400.7ZM342.2905 396.45Q342.2905 398.66876 341.52487 399.7625Q340.77487 400.84064 339.1655 400.84064Q337.57175 400.84064 336.80612 399.79376Q336.0405 398.73126 336.00925 396.6219L336.00925 394.9344Q336.00925 392.7469 336.75925 391.6844Q337.52487 390.60626 339.14987 390.60626Q340.75925 390.60626 341.50925 391.6375Q342.27487 392.66876 342.2905 394.8094L342.2905 396.45ZM341.02487 394.73126Q341.02487 393.1219 340.57175 392.3875Q340.13425 391.65314 339.14987 391.65314Q338.18112 391.65314 337.728 392.3875Q337.2905 393.10626 337.27487 394.6219L337.27487 396.65314Q337.27487 398.2625 337.74362 399.04376Q338.21237 399.8094 339.1655 399.8094Q340.103 399.8094 340.55612 399.09064Q341.00925 398.35626 341.02487 396.79376L341.02487 394.73126ZM344.14987 402.6844L343.43112 402.1844Q344.07175 401.29376 344.103 400.34064L344.103 399.2L345.33737 399.2L345.33737 400.2Q345.33737 400.8875 344.99362 401.575Q344.64987 402.2625 344.14987 402.6844ZM353.2905 396.45Q353.2905 398.66876 352.52487 399.7625Q351.77487 400.84064 350.1655 400.84064Q348.57175 400.84064 347.80612 399.79376Q347.0405 398.73126 347.00925 396.6219L347.00925 394.9344Q347.00925 392.7469 347.75925 391.6844Q348.52487 390.60626 350.14987 390.60626Q351.75925 390.60626 352.50925 391.6375Q353.27487 392.66876 353.2905 394.8094L353.2905 396.45ZM352.02487 394.73126Q352.02487 393.1219 351.57175 392.3875Q351.13425 391.65314 350.14987 391.65314Q349.18112 391.65314 348.728 392.3875Q348.2905 393.10626 348.27487 394.6219L348.27487 396.65314Q348.27487 398.2625 348.74362 399.04376Q349.21237 399.8094 350.1655 399.8094Q351.103 399.8094 351.55612 399.09064Q352.00925 398.35626 352.02487 396.79376L352.02487 394.73126ZM361.2905 396.45Q361.2905 398.66876 360.52487 399.7625Q359.77487 400.84064 358.1655 400.84064Q356.57175 400.84064 355.80612 399.79376Q355.0405 398.73126 355.00925 396.6219L355.00925 394.9344Q355.00925 392.7469 355.75925 391.6844Q356.52487 390.60626 358.14987 390.60626Q359.75925 390.60626 360.50925 391.6375Q361.27487 392.66876 361.2905 394.8094L361.2905 396.45ZM360.02487 394.73126Q360.02487 393.1219 359.57175 392.3875Q359.13425 391.65314 358.14987 391.65314Q357.18112 391.65314 356.728 392.3875Q356.2905 393.10626 356.27487 394.6219L356.27487 396.65314Q356.27487 398.2625 356.74362 399.04376Q357.21237 399.8094 358.1655 399.8094Q359.103 399.8094 359.55612 399.09064Q360.00925 398.35626 360.02487 396.79376L360.02487 394.73126ZM369.2905 396.45Q369.2905 398.66876 368.52487 399.7625Q367.77487 400.84064 366.1655 400.84064Q364.57175 400.84064 363.80612 399.79376Q363.0405 398.73126 363.00925 396.6219L363.00925 394.9344Q363.00925 392.7469 363.75925 391.6844Q364.52487 390.60626 366.14987 390.60626Q367.75925 390.60626 368.50925 391.6375Q369.27487 392.66876 369.2905 394.8094L369.2905 396.45ZM368.02487 394.73126Q368.02487 393.1219 367.57175 392.3875Q367.13425 391.65314 366.14987 391.65314Q365.18112 391.65314 364.728 392.3875Q364.2905 393.10626 364.27487 394.6219L364.27487 396.65314Q364.27487 398.2625 364.74362 399.04376Q365.21237 399.8094 366.1655 399.8094Q367.103 399.8094 367.55612 399.09064Q368.00925 398.35626 368.02487 396.79376L368.02487 394.73126ZM371.14987 402.6844L370.43112 402.1844Q371.07175 401.29376 371.103 400.34064L371.103 399.2L372.33737 399.2L372.33737 400.2Q372.33737 400.8875 371.99362 401.575Q371.64987 402.2625 371.14987 402.6844ZM380.2905 396.45Q380.2905 398.66876 379.52487 399.7625Q378.77487 400.84064 377.1655 400.84064Q375.57175 400.84064 374.80612 399.79376Q374.0405 398.73126 374.00925 396.6219L374.00925 394.9344Q374.00925 392.7469 374.75925 391.6844Q375.52487 390.60626 377.14987 390.60626Q378.75925 390.60626 379.50925 391.6375Q380.27487 392.66876 380.2905 394.8094L380.2905 396.45ZM379.02487 394.73126Q379.02487 393.1219 378.57175 392.3875Q378.13425 391.65314 377.14987 391.65314Q376.18112 391.65314 375.728 392.3875Q375.2905 393.10626 375.27487 394.6219L375.27487 396.65314Q375.27487 398.2625 375.74362 399.04376Q376.21237 399.8094 377.1655 399.8094Q378.103 399.8094 378.55612 399.09064Q379.00925 398.35626 379.02487 396.79376L379.02487 394.73126ZM388.2905 396.45Q388.2905 398.66876 387.52487 399.7625Q386.77487 400.84064 385.1655 400.84064Q383.57175 400.84064 382.80612 399.79376Q382.0405 398.73126 382.00925 396.6219L382.00925 394.9344Q382.00925 392.7469 382.75925 391.6844Q383.52487 390.60626 385.14987 390.60626Q386.75925 390.60626 387.50925 391.6375Q388.27487 392.66876 388.2905 394.8094L388.2905 396.45ZM387.02487 394.73126Q387.02487 393.1219 386.57175 392.3875Q386.13425 391.65314 385.14987 391.65314Q384.18112 391.65314 383.728 392.3875Q383.2905 393.10626 383.27487 394.6219L383.27487 396.65314Q383.27487 398.2625 383.74362 399.04376Q384.21237 399.8094 385.1655 399.8094Q386.103 399.8094 386.55612 399.09064Q387.00925 398.35626 387.02487 396.79376L387.02487 394.73126ZM396.2905 396.45Q396.2905 398.66876 395.52487 399.7625Q394.77487 400.84064 393.1655 400.84064Q391.57175 400.84064 390.80612 399.79376Q390.0405 398.73126 390.00925 396.6219L390.00925 394.9344Q390.00925 392.7469 390.75925 391.6844Q391.52487 390.60626 393.14987 390.60626Q394.75925 390.60626 395.50925 391.6375Q396.27487 392.66876 396.2905 394.8094L396.2905 396.45ZM395.02487 394.73126Q395.02487 393.1219 394.57175 392.3875Q394.13425 391.65314 393.14987 391.65314Q392.18112 391.65314 391.728 392.3875Q391.2905 393.10626 391.27487 394.6219L391.27487 396.65314Q391.27487 398.2625 391.74362 399.04376Q392.21237 399.8094 393.1655 399.8094Q394.103 399.8094 394.55612 399.09064Q395.00925 398.35626 395.02487 396.79376L395.02487 394.73126Z" fill-rule="nonzero"/><path fill="#ffffff" d="M434.03638 400.7L432.77075 400.7L432.77075 392.27814L430.20825 393.2L430.20825 392.0594L433.83325 390.7L434.03638 390.7L434.03638 400.7ZM438.45825 395.71564L438.97388 390.7469L444.06763 390.7469L444.06763 391.91876L440.03638 391.91876L439.7395 394.6219Q440.47388 394.2 441.39575 394.2Q442.75513 394.2 443.552 395.10626Q444.3645 395.9969 444.3645 397.52814Q444.3645 399.0594 443.52075 399.95Q442.69263 400.84064 441.20825 400.84064Q439.89575 400.84064 439.052 400.10626Q438.22388 399.3719 438.09888 398.075L439.302 398.075Q439.41138 398.9344 439.89575 399.3719Q440.39575 399.8094 441.20825 399.8094Q442.08325 399.8094 442.58325 399.21564Q443.09888 398.60626 443.09888 397.54376Q443.09888 396.54376 442.552 395.95Q442.00513 395.34064 441.09888 395.34064Q440.28638 395.34064 439.802 395.7L439.47388 395.96564L438.45825 395.71564ZM445.97388 402.6844L445.25513 402.1844Q445.89575 401.29376 445.927 400.34064L445.927 399.2L447.16138 399.2L447.16138 400.2Q447.16138 400.8875 446.81763 401.575Q446.47388 402.2625 445.97388 402.6844ZM455.1145 396.45Q455.1145 398.66876 454.34888 399.7625Q453.59888 400.84064 451.9895 400.84064Q450.39575 400.84064 449.63013 399.79376Q448.8645 398.73126 448.83325 396.6219L448.83325 394.9344Q448.83325 392.7469 449.58325 391.6844Q450.34888 390.60626 451.97388 390.60626Q453.58325 390.60626 454.33325 391.6375Q455.09888 392.66876 455.1145 394.8094L455.1145 396.45ZM453.84888 394.73126Q453.84888 393.1219 453.39575 392.3875Q452.95825 391.65314 451.97388 391.65314Q451.00513 391.65314 450.552 392.3875Q450.1145 393.10626 450.09888 394.6219L450.09888 396.65314Q450.09888 398.2625 450.56763 399.04376Q451.03638 399.8094 451.9895 399.8094Q452.927 399.8094 453.38013 399.09064Q453.83325 398.35626 453.84888 396.79376L453.84888 394.73126ZM463.1145 396.45Q463.1145 398.66876 462.34888 399.7625Q461.59888 400.84064 459.9895 400.84064Q458.39575 400.84064 457.63013 399.79376Q456.8645 398.73126 456.83325 396.6219L456.83325 394.9344Q456.83325 392.7469 457.58325 391.6844Q458.34888 390.60626 459.97388 390.60626Q461.58325 390.60626 462.33325 391.6375Q463.09888 392.66876 463.1145 394.8094L463.1145 396.45ZM461.84888 394.73126Q461.84888 393.1219 461.39575 392.3875Q460.95825 391.65314 459.97388 391.65314Q459.00513 391.65314 458.552 392.3875Q458.1145 393.10626 458.09888 394.6219L458.09888 396.65314Q458.09888 398.2625 458.56763 399.04376Q459.03638 399.8094 459.9895 399.8094Q460.927 399.8094 461.38013 399.09064Q461.83325 398.35626 461.84888 396.79376L461.84888 394.73126ZM471.1145 396.45Q471.1145 398.66876 470.34888 399.7625Q469.59888 400.84064 467.9895 400.84064Q466.39575 400.84064 465.63013 399.79376Q464.8645 398.73126 464.83325 396.6219L464.83325 394.9344Q464.83325 392.7469 465.58325 391.6844Q466.34888 390.60626 467.97388 390.60626Q469.58325 390.60626 470.33325 391.6375Q471.09888 392.66876 471.1145 394.8094L471.1145 396.45ZM469.84888 394.73126Q469.84888 393.1219 469.39575 392.3875Q468.95825 391.65314 467.97388 391.65314Q467.00513 391.65314 466.552 392.3875Q466.1145 393.10626 466.09888 394.6219L466.09888 396.65314Q466.09888 398.2625 466.56763 399.04376Q467.03638 399.8094 467.9895 399.8094Q468.927 399.8094 469.38013 399.09064Q469.83325 398.35626 469.84888 396.79376L469.84888 394.73126ZM472.97388 402.6844L472.25513 402.1844Q472.89575 401.29376 472.927 400.34064L472.927 399.2L474.16138 399.2L474.16138 400.2Q474.16138 400.8875 473.81763 401.575Q473.47388 402.2625 472.97388 402.6844ZM482.1145 396.45Q482.1145 398.66876 481.34888 399.7625Q480.59888 400.84064 478.9895 400.84064Q477.39575 400.84064 476.63013 399.79376Q475.8645 398.73126 475.83325 396.6219L475.83325 394.9344Q475.83325 392.7469 476.58325 391.6844Q477.34888 390.60626 478.97388 390.60626Q480.58325 390.60626 481.33325 391.6375Q482.09888 392.66876 482.1145 394.8094L482.1145 396.45ZM480.84888 394.73126Q480.84888 393.1219 480.39575 392.3875Q479.95825 391.65314 478.97388 391.65314Q478.00513 391.65314 477.552 392.3875Q477.1145 393.10626 477.09888 394.6219L477.09888 396.65314Q477.09888 398.2625 477.56763 399.04376Q478.03638 399.8094 478.9895 399.8094Q479.927 399.8094 480.38013 399.09064Q480.83325 398.35626 480.84888 396.79376L480.84888 394.73126ZM490.1145 396.45Q490.1145 398.66876 489.34888 399.7625Q488.59888 400.84064 486.9895 400.84064Q485.39575 400.84064 484.63013 399.79376Q483.8645 398.73126 483.83325 396.6219L483.83325 394.9344Q483.83325 392.7469 484.58325 391.6844Q485.34888 390.60626 486.97388 390.60626Q488.58325 390.60626 489.33325 391.6375Q490.09888 392.66876 490.1145 394.8094L490.1145 396.45ZM488.84888 394.73126Q488.84888 393.1219 488.39575 392.3875Q487.95825 391.65314 486.97388 391.65314Q486.00513 391.65314 485.552 392.3875Q485.1145 393.10626 485.09888 394.6219L485.09888 396.65314Q485.09888 398.2625 485.56763 399.04376Q486.03638 399.8094 486.9895 399.8094Q487.927 399.8094 488.38013 399.09064Q488.83325 398.35626 488.84888 396.79376L488.84888 394.73126ZM498.1145 396.45Q498.1145 398.66876 497.34888 399.7625Q496.59888 400.84064 494.9895 400.84064Q493.39575 400.84064 492.63013 399.79376Q491.8645 398.73126 491.83325 396.6219L491.83325 394.9344Q491.83325 392.7469 492.58325 391.6844Q493.34888 390.60626 494.97388 390.60626Q496.58325 390.60626 497.33325 391.6375Q498.09888 392.66876 498.1145 394.8094L498.1145 396.45ZM496.84888 394.73126Q496.84888 393.1219 496.39575 392.3875Q495.95825 391.65314 494.97388 391.65314Q494.00513 391.65314 493.552 392.3875Q493.1145 393.10626 493.09888 394.6219L493.09888 396.65314Q493.09888 398.2625 493.56763 399.04376Q494.03638 399.8094 494.9895 399.8094Q495.927 399.8094 496.38013 399.09064Q496.83325 398.35626 496.84888 396.79376L496.84888 394.73126Z" fill-rule="nonzero"/><path fill="#ffffff" d="M538.2197 400.7L531.7041 400.7L531.7041 399.79376L535.1416 395.96564Q535.9072 395.09064 536.2041 394.5594Q536.501 394.0125 536.501 393.41876Q536.501 392.65314 536.0166 392.15314Q535.54785 391.65314 534.7666 391.65314Q533.8291 391.65314 533.29785 392.1844Q532.7822 392.71564 532.7822 393.6844L531.5166 393.6844Q531.5166 392.3094 532.3916 391.46564Q533.2822 390.60626 534.7666 390.60626Q536.1572 390.60626 536.9541 391.34064Q537.7666 392.0594 537.7666 393.27814Q537.7666 394.7469 535.8916 396.77814L533.23535 399.66876L538.2197 399.66876L538.2197 400.7ZM545.9385 396.45Q545.9385 398.66876 545.17285 399.7625Q544.42285 400.84064 542.8135 400.84064Q541.2197 400.84064 540.4541 399.79376Q539.6885 398.73126 539.6572 396.6219L539.6572 394.9344Q539.6572 392.7469 540.4072 391.6844Q541.17285 390.60626 542.79785 390.60626Q544.4072 390.60626 545.1572 391.6375Q545.92285 392.66876 545.9385 394.8094L545.9385 396.45ZM544.67285 394.73126Q544.67285 393.1219 544.2197 392.3875Q543.7822 391.65314 542.79785 391.65314Q541.8291 391.65314 541.376 392.3875Q540.9385 393.10626 540.92285 394.6219L540.92285 396.65314Q540.92285 398.2625 541.3916 399.04376Q541.86035 399.8094 542.8135 399.8094Q543.751 399.8094 544.2041 399.09064Q544.6572 398.35626 544.67285 396.79376L544.67285 394.73126ZM547.79785 402.6844L547.0791 402.1844Q547.7197 401.29376 547.751 400.34064L547.751 399.2L548.98535 399.2L548.98535 400.2Q548.98535 400.8875 548.6416 401.575Q548.29785 402.2625 547.79785 402.6844ZM556.9385 396.45Q556.9385 398.66876 556.17285 399.7625Q555.42285 400.84064 553.8135 400.84064Q552.2197 400.84064 551.4541 399.79376Q550.6885 398.73126 550.6572 396.6219L550.6572 394.9344Q550.6572 392.7469 551.4072 391.6844Q552.17285 390.60626 553.79785 390.60626Q555.4072 390.60626 556.1572 391.6375Q556.92285 392.66876 556.9385 394.8094L556.9385 396.45ZM555.67285 394.73126Q555.67285 393.1219 555.2197 392.3875Q554.7822 391.65314 553.79785 391.65314Q552.8291 391.65314 552.376 392.3875Q551.9385 393.10626 551.92285 394.6219L551.92285 396.65314Q551.92285 398.2625 552.3916 399.04376Q552.86035 399.8094 553.8135 399.8094Q554.751 399.8094 555.2041 399.09064Q555.6572 398.35626 555.67285 396.79376L555.67285 394.73126ZM564.9385 396.45Q564.9385 398.66876 564.17285 399.7625Q563.42285 400.84064 561.8135 400.84064Q560.2197 400.84064 559.4541 399.79376Q558.6885 398.73126 558.6572 396.6219L558.6572 394.9344Q558.6572 392.7469 559.4072 391.6844Q560.17285 390.60626 561.79785 390.60626Q563.4072 390.60626 564.1572 391.6375Q564.92285 392.66876 564.9385 394.8094L564.9385 396.45ZM563.67285 394.73126Q563.67285 393.1219 563.2197 392.3875Q562.7822 391.65314 561.79785 391.65314Q560.8291 391.65314 560.376 392.3875Q559.9385 393.10626 559.92285 394.6219L559.92285 396.65314Q559.92285 398.2625 560.3916 399.04376Q560.86035 399.8094 561.8135 399.8094Q562.751 399.8094 563.2041 399.09064Q563.6572 398.35626 563.67285 396.79376L563.67285 394.73126ZM572.9385 396.45Q572.9385 398.66876 572.17285 399.7625Q571.42285 400.84064 569.8135 400.84064Q568.2197 400.84064 567.4541 399.79376Q566.6885 398.73126 566.6572 396.6219L566.6572 394.9344Q566.6572 392.7469 567.4072 391.6844Q568.17285 390.60626 569.79785 390.60626Q571.4072 390.60626 572.1572 391.6375Q572.92285 392.66876 572.9385 394.8094L572.9385 396.45ZM571.67285 394.73126Q571.67285 393.1219 571.2197 392.3875Q570.7822 391.65314 569.79785 391.65314Q568.8291 391.65314 568.376 392.3875Q567.9385 393.10626 567.92285 394.6219L567.92285 396.65314Q567.92285 398.2625 568.3916 399.04376Q568.86035 399.8094 569.8135 399.8094Q570.751 399.8094 571.2041 399.09064Q571.6572 398.35626 571.67285 396.79376L571.67285 394.73126ZM574.79785 402.6844L574.0791 402.1844Q574.7197 401.29376 574.751 400.34064L574.751 399.2L575.98535 399.2L575.98535 400.2Q575.98535 400.8875 575.6416 401.575Q575.29785 402.2625 574.79785 402.6844ZM583.9385 396.45Q583.9385 398.66876 583.17285 399.7625Q582.42285 400.84064 580.8135 400.84064Q579.2197 400.84064 578.4541 399.79376Q577.6885 398.73126 577.6572 396.6219L577.6572 394.9344Q577.6572 392.7469 578.4072 391.6844Q579.17285 390.60626 580.79785 390.60626Q582.4072 390.60626 583.1572 391.6375Q583.92285 392.66876 583.9385 394.8094L583.9385 396.45ZM582.67285 394.73126Q582.67285 393.1219 582.2197 392.3875Q581.7822 391.65314 580.79785 391.65314Q579.8291 391.65314 579.376 392.3875Q578.9385 393.10626 578.92285 394.6219L578.92285 396.65314Q578.92285 398.2625 579.3916 399.04376Q579.86035 399.8094 580.8135 399.8094Q581.751 399.8094 582.2041 399.09064Q582.6572 398.35626 582.67285 396.79376L582.67285 394.73126ZM591.9385 396.45Q591.9385 398.66876 591.17285 399.7625Q590.42285 400.84064 588.8135 400.84064Q587.2197 400.84064 586.4541 399.79376Q585.6885 398.73126 585.6572 396.6219L585.6572 394.9344Q585.6572 392.7469 586.4072 391.6844Q587.17285 390.60626 588.79785 390.60626Q590.4072 390.60626 591.1572 391.6375Q591.92285 392.66876 591.9385 394.8094L591.9385 396.45ZM590.67285 394.73126Q590.67285 393.1219 590.2197 392.3875Q589.7822 391.65314 588.79785 391.65314Q587.8291 391.65314 587.376 392.3875Q586.9385 393.10626 586.92285 394.6219L586.92285 396.65314Q586.92285 398.2625 587.3916 399.04376Q587.86035 399.8094 588.8135 399.8094Q589.751 399.8094 590.2041 399.09064Q590.6572 398.35626 590.67285 396.79376L590.67285 394.73126ZM599.9385 396.45Q599.9385 398.66876 599.17285 399.7625Q598.42285 400.84064 596.8135 400.84064Q595.2197 400.84064 594.4541 399.79376Q593.6885 398.73126 593.6572 396.6219L593.6572 394.9344Q593.6572 392.7469 594.4072 391.6844Q595.17285 390.60626 596.79785 390.60626Q598.4072 390.60626 599.1572 391.6375Q599.92285 392.66876 599.9385 394.8094L599.9385 396.45ZM598.67285 394.73126Q598.67285 393.1219 598.2197 392.3875Q597.7822 391.65314 596.79785 391.65314Q595.8291 391.65314 595.376 392.3875Q594.9385 393.10626 594.92285 394.6219L594.92285 396.65314Q594.92285 398.2625 595.3916 399.04376Q595.86035 399.8094 596.8135 399.8094Q597.751 399.8094 598.2041 399.09064Q598.6572 398.35626 598.67285 396.79376L598.67285 394.73126Z" fill-rule="nonzero"/><path fill="#2bf7b2" d="M274.0 25.8C274.0 25.247715 274.44772 24.8 275.0 24.8L285.0 24.8C285.55228 24.8 286.0 25.247715 286.0 25.8L286.0 35.8C286.0 36.352283 285.55228 36.8 285.0 36.8L275.0 36.8C274.44772 36.8 274.0 36.352283 274.0 35.8Z" fill-rule="nonzero"/><path fill="#ffffff" d="M296.67188 36.3L295.21875 36.3L295.21875 24.3L296.67188 24.3L296.67188 36.3ZM298.71875 31.9875Q298.71875 30.753124 299.20312 29.76875Q299.6875 28.76875 300.5625 28.2375Q301.4375 27.690624 302.54688 27.690624Q304.28125 27.690624 305.34375 28.89375Q306.40625 30.08125 306.40625 32.065624L306.40625 32.159374Q306.40625 33.39375 305.9375 34.378124Q305.46875 35.3625 304.57812 35.909374Q303.70312 36.45625 302.5625 36.45625Q300.84375 36.45625 299.78125 35.26875Q298.71875 34.065624 298.71875 32.096874L298.71875 31.9875ZM300.17188 32.159374Q300.17188 33.565624 300.8125 34.425Q301.46875 35.26875 302.5625 35.26875Q303.67188 35.26875 304.3125 34.409374Q304.96875 33.55 304.96875 31.9875Q304.96875 30.596874 304.29688 29.7375Q303.64062 28.878124 302.54688 28.878124Q301.48438 28.878124 300.82812 29.7375Q300.17188 30.58125 300.17188 32.159374ZM311.48438 35.26875Q312.26562 35.26875 312.84375 34.8Q313.42188 34.33125 313.48438 33.628124L314.84375 33.628124Q314.8125 34.3625 314.34375 35.01875Q313.89062 35.675 313.10938 36.065624Q312.34375 36.45625 311.48438 36.45625Q309.76562 36.45625 308.73438 35.3Q307.71875 34.14375 307.71875 32.14375L307.71875 31.909374Q307.71875 30.675 308.17188 29.721874Q308.625 28.753124 309.46875 28.221874Q310.32812 27.690624 311.48438 27.690624Q312.90625 27.690624 313.84375 28.55Q314.78125 29.39375 314.84375 30.753124L313.48438 30.753124Q313.42188 29.925 312.85938 29.409374Q312.29688 28.878124 311.48438 28.878124Q310.375 28.878124 309.76562 29.675Q309.17188 30.45625 309.17188 31.95625L309.17188 32.2375Q309.17188 33.690624 309.76562 34.4875Q310.375 35.26875 311.48438 35.26875ZM318.45312 32.378124L317.54688 33.33125L317.54688 36.3L316.10938 36.3L316.10938 24.3L317.54688 24.3L317.54688 31.55L318.32812 30.628124L320.95312 27.846874L322.71875 27.846874L319.42188 31.378124L323.09375 36.3L321.40625 36.3L318.45312 32.378124ZM327.60938 36.45625Q325.89062 36.45625 324.8125 35.33125Q323.73438 34.190624 323.73438 32.3L323.73438 32.034374Q323.73438 30.784374 324.20312 29.8Q324.6875 28.8 325.54688 28.253124Q326.42188 27.690624 327.42188 27.690624Q329.07812 27.690624 329.98438 28.784374Q330.90625 29.8625 330.90625 31.878124L330.90625 32.4875L325.17188 32.4875Q325.20312 33.7375 325.90625 34.503124Q326.60938 35.26875 327.6875 35.26875Q328.45312 35.26875 328.98438 34.95625Q329.51562 34.64375 329.90625 34.128124L330.79688 34.815624Q329.73438 36.45625 327.60938 36.45625ZM327.42188 28.878124Q326.54688 28.878124 325.95312 29.51875Q325.35938 30.14375 325.21875 31.3L329.45312 31.3L329.45312 31.190624Q329.39062 30.08125 328.85938 29.4875Q328.32812 28.878124 327.42188 28.878124ZM331.75 32.003124Q331.75 30.05 332.67188 28.878124Q333.59375 27.690624 335.07812 27.690624Q336.5625 27.690624 337.4375 28.70625L337.4375 24.3L338.875 24.3L338.875 36.3L337.54688 36.3L337.48438 35.39375Q336.60938 36.45625 335.0625 36.45625Q333.59375 36.45625 332.67188 35.253124Q331.75 34.05 331.75 32.1125L331.75 32.003124ZM333.1875 32.159374Q333.1875 33.596874 333.78125 34.409374Q334.375 35.221874 335.42188 35.221874Q336.79688 35.221874 337.4375 33.9875L337.4375 30.1125Q336.78125 28.909374 335.4375 28.909374Q334.375 28.909374 333.78125 29.7375Q333.1875 30.55 333.1875 32.159374Z" fill-rule="nonzero"/><path fill="#004a9f" d="M356.0 25.8C356.0 25.247715 356.44772 24.8 357.0 24.8L367.0 24.8C367.55228 24.8 368.0 25.247715 368.0 25.8L368.0 35.8C368.0 36.352283 367.55228 36.8 367.0 36.8L357.0 36.8C356.44772 36.8 356.0 36.352283 356.0 35.8Z" fill-rule="nonzero"/><path fill="#ffffff" d="M378.67188 36.3L377.21875 36.3L377.21875 24.3L378.67188 24.3L378.67188 36.3ZM382.67188 36.3L381.21875 36.3L381.21875 27.846874L382.67188 27.846874L382.67188 36.3ZM381.10938 25.596874Q381.10938 25.253124 381.3125 25.01875Q381.53125 24.76875 381.95312 24.76875Q382.375 24.76875 382.59375 25.01875Q382.8125 25.253124 382.8125 25.6125Q382.8125 25.95625 382.59375 26.190624Q382.375 26.425 381.95312 26.425Q381.53125 26.425 381.3125 26.190624Q381.10938 25.95625 381.10938 25.596874ZM384.75 32.003124Q384.75 30.003124 385.65625 28.846874Q386.57812 27.690624 388.10938 27.690624Q389.60938 27.690624 390.48438 28.690624L390.54688 27.846874L391.875 27.846874L391.875 39.55L390.42188 39.55L390.42188 35.51875Q389.54688 36.45625 388.09375 36.45625Q386.5625 36.45625 385.65625 35.26875Q384.75 34.065624 384.75 32.096874L384.75 32.003124ZM386.1875 32.159374Q386.1875 33.6125 386.79688 34.440624Q387.42188 35.26875 388.45312 35.26875Q389.75 35.26875 390.42188 34.128124L390.42188 29.9875Q389.73438 28.878124 388.46875 28.878124Q387.42188 28.878124 386.79688 29.70625Q386.1875 30.534374 386.1875 32.159374ZM399.3125 35.45625Q398.46875 36.45625 396.84375 36.45625Q395.48438 36.45625 394.78125 35.675Q394.07812 34.878124 394.0625 33.346874L394.0625 27.846874L395.51562 27.846874L395.51562 33.3Q395.51562 35.221874 397.07812 35.221874Q398.73438 35.221874 399.28125 33.9875L399.28125 27.846874L400.71875 27.846874L400.71875 36.3L399.34375 36.3L399.3125 35.45625ZM404.67188 36.3L403.21875 36.3L403.21875 27.846874L404.67188 27.846874L404.67188 36.3ZM403.10938 25.596874Q403.10938 25.253124 403.3125 25.01875Q403.53125 24.76875 403.95312 24.76875Q404.375 24.76875 404.59375 25.01875Q404.8125 25.253124 404.8125 25.6125Q404.8125 25.95625 404.59375 26.190624Q404.375 26.425 403.95312 26.425Q403.53125 26.425 403.3125 26.190624Q403.10938 25.95625 403.10938 25.596874ZM406.75 32.003124Q406.75 30.05 407.67188 28.878124Q408.59375 27.690624 410.07812 27.690624Q411.5625 27.690624 412.4375 28.70625L412.4375 24.3L413.875 24.3L413.875 36.3L412.54688 36.3L412.48438 35.39375Q411.60938 36.45625 410.0625 36.45625Q408.59375 36.45625 407.67188 35.253124Q406.75 34.05 406.75 32.1125L406.75 32.003124ZM408.1875 32.159374Q408.1875 33.596874 408.78125 34.409374Q409.375 35.221874 410.42188 35.221874Q411.79688 35.221874 412.4375 33.9875L412.4375 30.1125Q411.78125 28.909374 410.4375 28.909374Q409.375 28.909374 408.78125 29.7375Q408.1875 30.55 408.1875 32.159374Z" fill-rule="nonzero"/></svg>